<?xml version="1.0" encoding="UTF-8" standalone="no"?>
<svg
   xmlns:dc="http://purl.org/dc/elements/1.1/"
   xmlns:cc="http://creativecommons.org/ns#"
   xmlns:rdf="http://www.w3.org/1999/02/22-rdf-syntax-ns#"
   xmlns:svg="http://www.w3.org/2000/svg"
   xmlns="http://www.w3.org/2000/svg"
   viewBox="0 0 397.94666 425.51999"
   height="425.51999"
   width="397.94666"
   xml:space="preserve"
   id="svg2"
   version="1.1"><metadata
     id="metadata8"><rdf:RDF><cc:Work
         rdf:about=""><dc:format>image/svg+xml</dc:format><dc:type
           rdf:resource="http://purl.org/dc/dcmitype/StillImage" /></cc:Work></rdf:RDF></metadata><defs
     id="defs6"><clipPath
       id="clipPath20"
       clipPathUnits="userSpaceOnUse"><path
         id="path18"
         d="M 0,0 H 2984.59 V 3191 H 0 Z" /></clipPath></defs><g
     transform="matrix(1.3333333,0,0,-1.3333333,0,425.52)"
     id="g10"><g
       transform="scale(0.1)"
       id="g12"><g
         id="g14"><g
           clip-path="url(#clipPath20)"
           id="g16"><path
             id="path22"
             style="fill:#a7a5a6;fill-opacity:1;fill-rule:evenodd;stroke:none"
             d="m 278.277,2119.82 c 383.418,-61.14 690.899,-110.19 1021.703,-162.92 62.47,313.43 123.52,619.88 201.94,1013.37 144.57,-368.24 259.43,-660.85 378.08,-962.91 313.68,108.44 1003.71,390.49 1021.56,371.16 C 2680.21,2156.31 2397.97,1818.64 2164.17,1583.93 2459,1320.92 2699.12,1106.66 2984.59,852.07 2613.76,910.672 2304.05,959.52 1966.41,1012.84 1903.23,695.672 1842.32,389.719 1764.72,0 1624.41,357.398 1511.88,643.719 1387.71,959.961 1073.93,853.699 770.23,750.82 466.57,648.012 452.516,662 438.453,676.07 424.453,690.102 c 220.082,233.988 440.18,467.928 668.977,711.218 -284.645,250.93 -520.41,458.7 -815.153,718.5" /><path
             id="path24"
             style="fill:#a7a5a6;fill-opacity:1;fill-rule:evenodd;stroke:none"
             d="m 1130.96,516.262 c -55.71,-4.852 -104.91,36.418 -109.77,92.16 -4.89,55.82 36.4,105 92.11,109.879 55.86,4.871 105,-36.403 109.88,-92.211 4.89,-55.738 -36.36,-104.93 -92.22,-109.828 z m 221.46,4.687 c -17.27,4.582 -34.7,48.25 -33.01,72.492 1.41,19.75 32.93,54.789 48.39,53.391 121.16,-11.043 167.71,96.859 249.98,150.91 -95.92,-13.562 -200.32,48.629 -286.16,-42.582 -10,-10.66 -56.62,-3.551 -70.6,10.66 -17.23,17.5 -33.22,61.18 -23.34,76.16 64.3,97.649 -0.2,184.39 -12.22,276.91 -36.07,-88.93 -137.06,-149.769 -101.58,-265.261 4.34,-14.137 -25.95,-52.457 -45.29,-56.797 -23.74,-5.262 -68.03,5.398 -77.2,22.918 -54.425,103.711 -163.992,90.18 -249.37,129.52 57.16,-76.758 60.695,-192.86 177.433,-222.098 16.485,-4.133 35.309,-51.68 30.274,-73.981 -5.016,-22.171 -39.961,-54.972 -59.7,-53.582 -116.734,8.27 -155.039,-95.8 -230.851,-147.589 95.66,7.589 196.476,-42.11 280.34,41.289 11.683,11.523 62.244,2.242 77.974,-13.829 15.65,-15.98 23.04,-61.23 11.48,-78.871 -64.064,-97.847 7.9,-181.519 15.07,-272.129 43.98,89.629 134.91,158.262 103.99,274.469 -3.8,14.16 33.08,54.199 53.49,56.02 25.41,2.261 55.65,-19.348 79.44,-36.637 28.69,-20.801 49.2,-54.82 79.67,-70.672 47.28,-24.558 99.98,-38.551 150.37,-57.058 -48.47,81.57 -52.57,195.847 -168.58,226.347" /><path
             id="path26"
             style="fill:#a7a5a6;fill-opacity:1;fill-rule:evenodd;stroke:none"
             d="m 2200.74,2300.93 c -2.72,-0.48 -5.39,-0.99 -8.06,-1.49 0.03,-24.67 -0.49,-49.37 0.73,-74.01 0.14,-3.71 8.5,-7.02 13.07,-10.52 1.88,1.05 3.73,2.11 5.61,3.19 -3.77,27.61 -7.54,55.24 -11.35,82.83 z m -397.69,-144.86 c -21.04,-10.86 -36.58,-14.57 -50.92,0.49 -26.63,28.01 -27.21,40.26 -15.68,61.39 12.47,22.84 22.08,47.98 28.16,73.27 9.93,41.62 20.54,47.76 59.66,32.85 22.61,-8.61 46.88,-13.35 70.76,-17.71 5.45,-0.95 12.53,10.25 18.79,10.18 21.6,-0.29 40.85,29.46 64.4,5.02 3.13,-3.22 9.82,-2.88 14.12,-3.94 -23.69,55.25 -46.34,108.85 -69.74,162.17 -2.78,6.31 -9.01,11.53 -14.49,16.19 -29.78,25.35 -40.62,64.29 -27.41,100.51 5.8,15.9 11.72,31.8 15.16,52.31 -19.98,-12.72 -39.86,-25.54 -59.96,-38.09 -6.83,-4.24 -14.64,-7.04 -20.92,-11.91 -6.19,-4.82 -9.96,-13.56 -16.6,-16.65 -9.3,-4.3 -21.09,-8.36 -30.39,-6.24 -12.4,2.82 -23.38,11.67 -36.76,18.92 2.81,4.37 5.63,8.81 4.95,7.77 -4.68,21.99 -8.13,39.75 -12.37,57.27 -1.71,6.87 -3.97,14.39 -8.32,19.68 -46.76,57.51 -76.24,123.25 -92.75,194.99 -2.47,10.89 -0.04,22.95 0.11,33.3 38.35,-71.04 76.74,-142.12 113.33,-209.81 53.78,22.04 102.8,44.12 153.27,62.17 55.75,19.9 114.03,22.2 172.62,14.96 7.15,-0.85 13.79,-5.34 20.96,-6.78 7.63,-1.57 17.2,-4.61 23.22,-1.62 32.97,16.54 66.43,13.95 101.5,9.16 37.04,-5.04 74.77,-4.9 110.73,-6.91 19.18,60.04 43.96,112.21 101.95,138.61 10.31,4.67 24.97,2.98 36.86,0.44 36.81,-7.95 76.46,-49.9 73.96,-81.38 -1.63,-20.71 -11.25,-40.8 -19.71,-69.37 17.91,-27.48 -16.34,-46.59 -32.54,-74.29 9.72,1.46 17.2,2.54 24.68,3.69 0.99,-2.48 2.02,-4.88 2.94,-7.29 -12.79,-6.47 -25.57,-12.94 -39.88,-20.21 0.8,-2.59 1.32,-7.85 3.9,-11.76 27.02,-41.05 36.65,-86.55 35.55,-134.96 -0.46,-21.67 3.69,-40.24 29.97,-43.88 2.71,-0.35 5.86,-2.07 7.61,-4.17 20.76,-24.61 41.02,-49.64 61.99,-73.99 5.35,-6.26 12.74,-10.8 19.26,-16.05 6.67,-5.35 13.54,-10.42 20.13,-15.86 18.6,-15.34 36.75,-31.22 55.74,-45.99 10.85,-8.43 28.92,-10.25 23.59,-31.35 -0.66,-2.69 6.32,-7.5 9.9,-11.12 10.21,-10.4 20.44,-20.74 30.83,-31.23 -28.73,-23.56 -45.63,3.18 -66.42,10.94 -3.15,-4.36 -6.21,-8.69 -9.32,-12.94 -5.49,6.27 -10.92,12.54 -20.45,23.52 -4.55,-6.72 -12.48,-13.47 -13.73,-21.33 -2.89,-17.64 -12.05,-22.03 -31.19,-18.8 21.06,30.56 -5.23,35.69 -22.81,45.49 -53.63,29.7 -95.59,74 -130.65,121.73 -22.68,30.82 -45.05,60.36 -71.89,87.64 -14.84,15.08 -22.04,37.74 -34.53,60.35 -29.12,-13.68 -59.73,-27.83 -89.94,-42.77 -3.35,-1.63 -5.98,-7.97 -6.19,-12.26 -1.27,-26.16 1.57,-50.65 25.34,-68.13 10.52,-7.72 18.8,-18.52 28.68,-28.61 -15.45,-16.74 -30.63,-31.85 -44.07,-48.29 -5.02,-6.14 -9.6,-16.14 -8.34,-23.26 5.82,-32.14 17.8,-59.14 51.84,-74.08 23.52,-10.31 44.12,-23.98 70.96,-12.72 0.98,0.41 6.23,-9.41 9.55,-14.47 -1.74,-1.34 -3.4,-2.74 -5.12,-4.11 7.23,-1.29 14.83,-1.47 21.46,-4.13 6.55,-2.56 12.1,-7.63 18.08,-11.61 -5.52,-5.79 -10.52,-15.96 -16.65,-16.69 -33.78,-4.14 -67.81,-6.82 -101.83,-8.43 -25.12,-1.17 -50.42,1.27 -75.51,-0.37 -18.03,-1.18 -27.75,6.1 -33.96,21.63 -7.94,19.97 -19.3,21.96 -33.34,6.51 -2.82,-3.11 -6.75,-7.26 -10.29,-7.36 -34.35,-0.77 -69.36,-4.76 -103,0.13 -36.26,5.25 -71.34,18.82 -106.84,29.23 -24.56,7.23 -48.49,16.99 -73.39,22.53 -46.62,10.38 -77.01,-18.56 -105.18,-48.76 -9.72,-10.47 -8.2,-22.14 9.56,-25.39 4.01,-0.75 7.69,-3.5 17.01,-7.97" /><path
             id="path28"
             style="fill:#a7a5a6;fill-opacity:1;fill-rule:evenodd;stroke:none"
             d="m 573.242,1699.73 c 5.707,5.48 10.43,13.16 17.231,16.07 45.597,19.59 42.629,59.2 36.23,95.96 -19.691,113.42 -12.031,225.98 3.985,338.74 3.746,26.46 19.046,43.13 41.624,54.4 33.786,16.84 68.083,32.7 101.77,49.83 44.273,22.6 88.074,46.01 134.02,70.09 -36,73.02 -26.774,149.17 -25.856,224.32 0.406,30.18 -5.976,55.14 -27.152,79.05 -15.09,17.04 -19.563,43.07 -31.715,63.31 -7.582,12.59 -19.41,23.64 -31.547,32.27 -64.164,45.69 -106.809,80.51 -47.047,156.62 7.727,9.83 11.606,25.9 10.668,38.58 -2.441,35 -8.437,69.78 -13.027,104.62 -45.059,-6.37 -82.86,-11.87 -120.762,-16.54 -1.258,-0.16 -3.559,8.16 -6.637,15.69 21.125,5.03 40.227,9.01 58.996,14.14 22.817,6.19 45.872,6.94 64.391,29.74 10.008,12.31 42.469,17.28 59.336,10.95 43.602,-16.32 80.047,7.41 124.453,5.68 -23.609,38.41 -43.273,70.36 -62.949,102.26 3.004,1.97 6.062,3.94 9.051,5.92 37.558,-40.02 91.125,-67.02 102.523,-125.14 -17.195,-1.5 -32.742,-1.67 -47.82,-4.44 -24.449,-4.49 -48.621,-10.5 -72.852,-16.18 -34.551,-8.17 -48.461,-26.03 -40.703,-60.75 10.317,-46.1 15.043,-96.24 51.184,-131.09 25.629,-24.65 62.894,-38.6 63.535,-82.27 0.043,-2.01 3.82,-4.64 6.43,-5.76 2.527,-1.09 5.691,-0.64 11.39,-1.09 -0.273,9.25 0.297,17.85 -0.93,26.18 -4.199,28.4 -10.46,56.54 -13.203,85.05 -4.379,44.49 22.457,75.86 67.746,82.36 45.255,6.52 85.055,-18.06 91.835,-60.66 5.29,-33.11 26.51,-64.39 4.73,-101.62 -10.33,-17.7 6.33,-34.52 32.56,-32.05 -6.31,-30.27 10.25,-42.8 34.65,-49.47 51.27,-14.05 71.73,-59.98 100.84,-97.14 7.79,-9.92 17.2,-18.59 26.03,-27.69 5.45,-5.61 13.83,-9.93 16.4,-16.55 16.47,-42.41 34.87,-84.45 46.36,-128.27 11.36,-43.06 -12.69,-67.93 -57.13,-66.71 -33.28,0.95 -62.38,-18.22 -73.66,-48.46 -5.6,-15.21 14.03,-34.13 37.62,-34.48 34.65,-0.52 69.3,0.23 111.25,0.49 -20.65,-45.87 -61.09,-13.69 -87.62,-34.57 27.83,-30.76 51.81,-70.77 87.01,-91.4 23.37,-13.7 42.56,-42.47 69.13,-42.34 99.79,0.5 162.82,-78.8 248.08,-108.8 10.14,-3.55 20.65,-7.42 29.3,-13.56 34.3,-24.39 26.56,-59.06 18.34,-91.56 -6.72,-26.41 -27.44,-32.96 -53.64,-28.96 -8.08,1.23 -17.4,-5.2 -27.2,-8.45 -1.48,40.51 -13.58,51.4 -50.67,50.22 -52.76,-1.71 -105.57,-4.55 -158.33,-4.55 -66.29,0.06 -124.95,25.23 -176.84,64.14 -60.44,45.38 -118.5,93.91 -177.31,141.45 -18.96,15.29 -70.26,15.84 -97.047,1.77 -26.93,-14.16 -54.355,-27.77 -82.59,-39.04 -24.867,-9.94 -50.871,-17.24 -76.851,-23.96 -46.696,-12.06 -54.11,-24.7 -43.395,-71.86 14.445,-63.71 27.316,-127.79 41.266,-191.64 5.703,-26.23 -5.965,-44.41 -29.028,-51.66 -30.64,-9.65 -63,-13.6 -94.152,-21.95 -14.543,-3.87 -28.563,-11.15 -41.637,-18.87 -27.672,-16.23 -53.695,-36.64 -89.101,-28.28 -0.512,5.99 -1.051,11.93 -1.563,17.91" /><path
             id="path30"
             style="fill:#a7a5a6;fill-opacity:1;fill-rule:evenodd;stroke:none"
             d="m 2355.04,1644.24 c 1.21,-1.35 2.36,-2.78 3.56,-4.13 1.77,0.44 3.8,0.58 5.35,1.47 39.79,22.78 79.79,45.08 118.94,68.85 6.64,4.01 9.53,14.13 14.16,21.45 -2.25,2.67 -4.53,5.35 -6.8,8.06 -10.2,-4.23 -21.7,-6.64 -30.28,-13 -27.55,-20.45 -53.93,-42.36 -80.79,-63.65 -8.01,-6.39 -16.11,-12.66 -24.14,-19.05 z m 241.64,-252.09 c 0.7,-28.3 0.64,-56.68 2.4,-84.9 1.87,-30.51 5.45,-60.92 8.26,-91.33 1.02,-11.06 1.94,-22.11 2.91,-33.18 2.75,0.21 5.45,0.42 8.19,0.65 -0.98,11.3 -3.09,22.63 -2.7,33.86 0.64,17.7 -7.52,37.91 14.71,50.24 9.73,5.39 14.28,14.29 6.11,26.75 -3.36,5.12 -2.6,16.15 0.8,21.88 9.79,16.75 21.89,32.17 34.02,49.49 -30.38,-8.91 -47.71,12.66 -74.7,26.54 z m 237.15,643.35 c 17.07,-8.55 34.82,-15.99 50.87,-26.15 7.6,-4.86 14.87,-14.11 17.23,-22.72 5.76,-21.07 8.58,-42.82 -4.08,-63.29 -1.39,-2.24 -1.4,-7.18 0.13,-9.12 14.05,-17.52 6.14,-33.66 -2.03,-50.21 -4.98,-10.12 -8.7,-20.8 -14.86,-35.76 11.66,4.86 19.52,8.14 27.36,11.4 1.24,-1.67 2.47,-3.38 3.68,-5.08 -6.8,-5.08 -12.99,-11.68 -20.59,-14.88 -14.88,-6.33 -19.51,-13.87 -14.22,-30.82 10.7,-34.12 20.17,-68.81 26.43,-103.93 2.59,-14.59 -4.65,-30.86 -6.77,-46.45 -0.79,-5.75 -1.45,-12.69 1,-17.44 12.7,-24.56 28.5,-47.71 39.41,-72.98 13.84,-31.99 25.03,-65.2 35.28,-98.52 4.65,-15.25 9.11,-32.59 -10.8,-44.17 -4.55,-2.66 -4.04,-13.94 -7.36,-27.26 -5.24,9.41 -7.91,14.33 -11.09,20.11 -10.08,-11.9 -25.71,-13.56 -32.15,-0.71 -5.61,11.25 -0.49,27.8 -0.09,42.02 2.65,0.62 5.28,1.25 7.9,1.83 -6.83,6.76 -12.61,15.16 -20.6,19.97 -45.92,27.69 -67.5,71.18 -81.19,120.48 -4.54,16.46 -10.3,32.7 -16.93,48.46 -1.4,3.3 -10.07,6.7 -13.7,5.4 -8.56,-3.14 -16.62,-8.38 -23.99,-13.94 -25.4,-19.1 -50.44,-38.73 -78.88,-60.6 8.38,-9.49 19.57,-21.41 29.96,-33.97 27.29,-33.12 57.56,-64.47 79.85,-100.72 10.99,-17.75 10.91,-45.24 8.24,-67.41 -1.66,-13.86 -18.27,-25.45 -26.76,-38.98 -17.48,-27.76 -33.42,-56.54 -51.23,-84.12 -8.22,-12.65 -19.03,-23.66 -29.22,-34.98 -15.55,-17.23 -25.68,-36.76 -27.67,-61.08 29.84,-16.03 56.86,-37.61 93.31,-37.71 6.57,0 13.11,-6.71 19.66,-10.32 0.07,-2.53 0.15,-5.06 0.23,-7.6 -9.88,-2.92 -19.79,-8.23 -29.71,-8.23 -24.48,0.04 -49.02,3.4 -73.56,3.67 -22.59,0.29 -45.23,-0.93 -67.73,-2.9 -23.12,-2.06 -30.72,3.47 -26.43,26.09 3.08,16.01 10.74,31.19 13.98,40.19 -3.92,13.42 -8.1,21.39 -8.27,29.43 -0.45,20.61 3.28,41.47 1.05,61.71 -6.9,62.8 -15.81,125.36 -24,188.41 -38.04,8.61 -68.81,1.73 -94.51,-35.06 -28.13,-40.17 -63.21,-75.66 -96.68,-111.85 -12.91,-13.97 -28.66,-25.6 -50.85,-22.42 -5.75,0.82 -13.96,-4.2 -18.53,-8.95 -14.61,-15.04 -29.24,-30.31 -41.4,-47.29 -7.54,-10.5 -12.81,-23.75 -15.18,-36.5 -3.46,-18.85 -16.39,-21.44 -31.11,-24.37 -6.28,-1.25 -15.57,-3.64 -17.38,-8.03 -9.32,-22.55 -17.82,-45.67 -24.03,-69.24 -1.83,-6.75 4.09,-16.11 7.85,-23.63 4.08,-8.28 10.88,-15.31 14.22,-23.8 1.52,-3.79 -0.91,-12.261 -4.2,-14.351 -27.42,-17.18 -79.27,-1.328 -90.9,28.011 -2.52,6.43 -1.97,15.88 0.92,22.28 13.56,30.18 28.5,59.69 42.74,89.61 1.97,4.09 2.85,8.73 4.15,13.03 -10.39,6.09 -20.41,11.95 -31.87,18.64 8.15,16.65 13.09,34.22 23.91,46.6 9.74,11.31 25.97,16.89 39.31,24.98 -0.34,1.89 -0.62,3.73 -0.97,5.64 -15.28,-0.17 -30.59,-0.33 -45.9,-0.48 -0.24,2.07 -0.46,4.14 -0.69,6.22 16.41,2.79 32.88,5.56 50.65,8.55 8.22,24.99 18.98,49.77 47.6,61.42 3.2,1.34 4.81,10.21 4.69,15.54 -0.44,18.03 8.43,28.97 24.97,33.13 11.33,2.83 14.7,8.6 17.87,19.95 8.39,29.99 21.33,58.72 30.22,88.61 9.44,31.77 16.66,64.22 23.93,96.61 1.09,4.86 -2.82,10.84 -8.23,16.33 -2.07,-6.55 -5.37,-13.01 -5.99,-19.69 -1.29,-13.84 -9.55,-19.29 -21.58,-17.77 -19.93,2.6 -42.84,6.62 -48.08,28.65 -10.4,43.65 -43.8,69.91 -69.12,102.6 -29.7,38.44 -58.21,77.87 -85.52,118.01 -8,11.76 -10.3,27.42 -16.64,45.3 57.35,-67.94 111.25,-131.81 166.96,-197.86 22.73,27.42 41.38,53.65 63.81,76 31.5,31.44 64.07,62.36 99.72,88.63 14.94,10.99 39.16,9.05 58.9,13.9 21.47,5.26 42.66,12 64.2,17.13 6.06,1.43 13.23,-1.85 19.4,-0.53 22.52,4.87 44.61,11.65 67.25,16.04 27.38,5.33 55.05,8.95 82.65,13.42 7.68,1.18 15.35,2.59 18.34,7.36 14.69,39.55 28.5,79.54 44.68,118.46 4.79,11.49 16.36,20.23 24.79,30.22 14.65,1.28 29.3,2.56 43.97,3.83" /><path
             id="path32"
             style="fill:#a7a5a6;fill-opacity:1;fill-rule:evenodd;stroke:none"
             d="m 518.477,1869.49 c -44.215,-59.39 -110.934,-87.71 -171.801,-123.99 -49.133,-29.25 -99.18,-56.98 -148.313,-86.35 -6.425,-3.83 -9.617,-13.21 -14.293,-20.03 8.723,-0.03 19.309,-3.36 25.879,0.4 82.727,46.36 164.856,93.78 247.117,140.99 51.094,29.3 119.157,24.58 164.438,-11.66 4.141,-3.34 8.43,-7.56 10.5,-12.29 15.883,-36.46 33.07,-72.51 45.691,-110.11 3.887,-11.66 -5.156,-27.64 -7.965,-41.69 -1.593,-8.08 -1.742,-16.46 -4.07,-24.28 -1.699,-5.87 -5.836,-10.98 -8.945,-16.43 -4.52,3.92 -11.93,7.18 -13.031,11.94 -3.989,17.26 -5.594,35.05 -8.75,52.53 -0.926,5.16 -2.914,10.95 -6.325,14.67 -49.531,53.6 -143.343,37.01 -173.414,-29.75 -10.675,-23.71 -3.843,-44.06 6.899,-64.71 2.48,-4.72 8.25,-10.73 6.968,-13.81 -7.199,-17.44 -1.019,-29.54 10.493,-42.75 9.957,-11.38 16.121,-26.03 24.507,-40.21 -71.597,-61.6 -125.796,-140.57 -184.328,-215.92 -29.816,-38.36 -61.922,-74.91 -92.007,-113.07 -6.145,-7.75 -6.657,-26.33 -11.957,-27.26 -21.708,-3.81 -15.25,-24.94 -25.911,-35.57 C 130.93,1001.39 73.3984,941.211 16.1875,880.73 9.71094,873.93 -8.47656,868.531 4.64453,854.379 c 1.90625,-2.039 19.45317,6.762 26.51567,13.781 59.25,59.582 117.6448,120.012 176.6058,179.91 24.953,25.31 27.918,25.67 55.808,4.94 13.899,-10.27 22.903,-9.81 35.305,4.08 32.918,36.86 68.086,71.72 101.957,107.76 10.894,11.61 18.629,27.19 31.277,35.99 29.575,20.65 60.883,38.89 92.325,56.72 8.621,4.89 20.031,4.88 32.039,7.5 -52.125,-72.87 -101.028,-143.14 -152.539,-211.43 -11.051,-14.66 -30.391,-24.81 -47.876,-32.44 -27.335,-11.87 -54.113,-23.131 -76.14,-44.311 -25.891,-24.77 -53.453,-47.731 -80.484,-71.25 -3.891,-3.41 -9.211,-5.09 -13.633,-7.93 -9.496,-6.187 -20.243,-11.25 -27.993,-19.199 -20.453,-21.031 -38.96,-44.02 -59.4956,-64.941 -12.6562,-12.977 -22.4922,-25.848 -9.4922,-42.618 12.0308,-15.39 41.7808,-15.171 53.7928,0.489 11.813,15.3 21.039,32.562 31.094,48.34 3.512,-0.688 5.25,-0.489 6.109,-1.25 42.028,-36.68 29.977,-34.938 79.043,-4.469 45.657,28.418 87.133,63.57 130.918,95.09 19.543,14.05 39.422,27.988 60.567,39.3 47.445,25.368 95.773,49.118 136.375,69.789 15.289,-11.25 26.437,-19.46 41.925,-30.8 4.653,20.35 7.872,34.34 11.176,48.65 31.969,7.64 63.746,15.23 98.992,23.65 -1.261,-18.68 -2.363,-35.25 -3.589,-53.3 11.984,-1.46 22.492,-2.71 35.628,-4.32 2,14.82 3.875,28.4 5.915,43.08 27.039,-10.29 53.066,-20.23 79.269,-30.22 -13.961,-31.548 -26.781,-65.138 -43.519,-96.681 -9.708,-18.258 -27.208,-32.23 -38.602,-49.809 -20.711,-31.988 -12.496,-46.878 22.984,-57.75 34.098,-10.488 66.457,-26.558 99.985,-39.011 8.535,-3.168 18.699,-2.168 28.074,-3.071 -1.699,8.743 -0.512,19.942 -5.57,25.813 -19.782,22.988 -7.969,37.531 4.847,60.187 29.551,52.313 51.489,108.903 75.688,164.112 6.494,14.86 10.044,30.99 14.964,46.56 -0.27,3.12 -0.56,6.28 -0.82,9.41 -12.04,10.84 -22.433,25.02 -36.488,31.92 -53.93,26.64 -109.406,50.2 -163.394,76.83 -10.708,5.25 -18.458,18.26 -25.27,29.16 -6.754,10.72 -10.621,23.32 -15.793,35.07 -1.66,18 6.492,38.02 5.387,57.53 -2.668,48.36 -9.735,96.46 -14.75,144.69 -0.696,6.85 -0.387,14.04 0.816,20.82 3.801,21.53 10.426,42.79 12.024,64.43 3.109,42.76 8.98,86.43 3.718,128.42 -4.953,39.43 -21.961,77.6 -35.269,115.76 -10.711,30.64 -27.262,37.76 -60.203,33.11 -11.286,-1.59 -25.082,-0.51 -34.832,4.74 -32.024,17.21 -62.727,36.86 -93.957,55.55 -12.563,-1.11 -25.028,-2.19 -37.582,-3.27" /><path
             id="path34"
             style="fill:#a7a5a6;fill-opacity:1;fill-rule:evenodd;stroke:none"
             d="m 2829.11,1008.79 c 4.44,-3.87 8.9,-7.79 15.72,-13.81 -180.87,-62.648 -353.27,-140.148 -518.43,-236.339 28.56,-14.391 47.65,-43.282 84.15,-38.77 24.33,3.02 46.88,-19.512 59.12,-52.93 7.09,-19.472 6.28,-36.961 -10.97,-51.472 -20.83,-17.52 -52.66,-21.188 -74.89,-10.899 -9.15,4.262 -22.01,6.328 -31.22,3.36 -23.24,-7.551 -41.78,-0.77 -59.79,12.672 -5.72,4.23 -11.15,8.968 -17.39,12.328 -13.11,7.16 -23.01,5.769 -24.9,-11.711 -0.16,-1.571 -0.74,-3.188 -0.52,-4.688 5.58,-34.609 0.87,-66.062 -35.75,-92.25 15.78,-5 24.73,-9.851 33.9,-10.371 28.35,-1.691 56.84,-1.578 85.24,-2.34 42.32,-1.261 84.81,-0.859 126.89,-4.769 20.69,-1.93 41.8,-9.68 60.71,-18.91 57.41,-28.012 113.9,-58.082 167.61,-88.922 8.82,-10.137 15.65,-24.137 26.76,-29.77 47.84,-24.14 97.09,-45.558 145.47,-68.64 9.16,-4.34 17.67,-10.829 24.92,-17.899 3.87,-3.769 7.17,-12.051 5.54,-16.308 -1.57,-4.043 -9.96,-7.93 -15.13,-7.711 -10,0.488 -20.94,1.91 -29.63,6.488 -27.07,14.23 -54.67,19.191 -84.78,12.691 -20.7,-4.519 -36.86,-1.519 -41.6,24.649 -2.92,15.972 -35.55,36.402 -50.34,33.781 -5.03,-0.91 -10,-6.691 -13.41,-11.398 -7.8,-10.782 -14.55,-22.282 -20.11,-30.86 -20.07,4.949 -37.14,10.09 -54.6,13.297 -54.79,10.043 -102.23,36.953 -150.1,63.281 -9.1,5.039 -20.9,9.77 -30.57,8.379 -38.3,-5.539 -76.22,-13.527 -117.36,-21.187 9.98,-23.512 19.61,-46.293 30.34,-71.532 -11.94,-4.921 -23.03,-9.511 -37.11,-15.332 -7.52,22.622 -13.22,43.012 -21.31,62.403 -3.36,8.039 -12,13.847 -18.23,20.691 -2.6,-8.652 -5.33,-17.191 -7.76,-25.844 -0.62,-2.226 -0.48,-4.726 -1.18,-12.289 -15.04,1.411 -30.27,1.512 -44.98,4.36 -20.13,3.941 -39.65,11.051 -59.79,14.761 -35.6,6.532 -49.12,-4.191 -54.84,-40.171 -4.55,-28.848 -8.15,-57.95 -14.79,-86.329 -9.49,-40.64 -34.07,-51.64 -72.64,-37.71 -51.29,18.511 -102.75,36.789 -154.96,52.378 -25.66,7.672 -35.15,27.774 -46.45,47.153 -2.32,3.941 0.97,13.859 4.84,18.258 20.29,23.16 41.49,45.531 62.61,67.953 5.14,5.429 11.14,10.047 14.04,18.937 -24.55,-12.051 -48.64,-25.207 -73.82,-35.679 -12.41,-5.18 -26.83,-5.43 -40.32,-7.911 -0.4,4.723 -0.82,9.493 -1.23,14.223 2.61,1.719 5.08,3.77 7.89,5.047 56.66,26.121 113.69,51.383 169.68,78.84 11.38,5.582 20.4,18.472 26.71,30.011 1.41,2.52 -12.5,15.391 -21.03,20.86 -13.11,8.359 -15.6,16.289 -9.11,31.219 5.7,13.082 5.63,28.64 8.11,43.14 -2.58,0.832 -5.16,1.68 -7.75,2.52 -5.32,-4.239 -11.01,-8.137 -15.96,-12.789 -19.56,-18.371 -40.55,-19.551 -64.36,-7.211 -15.55,8.09 -32.88,14.441 -50.08,17.222 -32.07,5.118 -40.64,11.86 -47.08,46.039 -4.05,21.489 9.12,59.34 27.97,62.93 36.42,6.969 53.78,39.981 84.1,53.77 18.99,8.66 39.18,14.652 58.92,21.679 12.76,4.551 27.99,5.973 37.92,13.973 14.88,12.09 28.86,15.539 47.74,13.75 18.68,-1.762 37.9,2.566 58.13,4.348 -8.58,20.742 -16.52,37.062 -22.15,54.242 -10.39,31.68 -1.74,59.41 22.13,76.117 32.46,22.691 115.56,12.543 140.78,-18.488 12.93,-15.879 21.83,-35.09 35.02,-50.731 7.5,-8.929 13.01,-13.109 4.21,-25.211 -4.75,-6.527 -5.34,-22.238 -0.71,-27.57 4.53,-5.238 18.26,-3.457 27.77,-2.988 7.58,0.34 17.13,7.23 22.11,4.449 14.37,-7.918 23.68,0.531 34.79,5.879 120.89,58.152 241.44,117.012 363.01,173.793 38.82,18.129 80.29,30.719 120.58,45.808 7.89,0.7 15.78,1.38 23.7,2.06" /><path
             id="path36"
             style="fill:#ffffff;fill-opacity:1;fill-rule:evenodd;stroke:none"
             d="m 1912.77,410.82 c 37.7,-4.39 78.33,-9.379 118.99,-13.578 6.74,-0.652 13.83,2.297 20.73,3.559 -0.19,1.41 -0.42,2.84 -0.64,4.258 -48.72,6.363 -97.48,12.839 -146.26,19.031 -24.51,3.101 -42.75,19.019 -49.73,42.281 -3.19,10.527 -7.34,21.469 -13.81,30.211 -25.57,34.199 -51.37,68.289 -78.73,101.027 -20.37,24.411 -47.28,39.223 -79.41,44.11 -5.69,0.84 -12.58,5.25 -15.59,10.062 -8.9,14.219 -20.09,26.141 -25.1,43.989 -5.62,19.851 -25.96,30.89 -47.37,32.609 -7.06,0.613 -16.73,-4.438 -21.79,-10.008 -15.73,-17.062 -20.45,-37.121 -21.52,-61.391 -1.11,-26.488 21.93,-42.25 19.77,-64.238 -11.92,-6.57 -23.33,-12.89 -34.77,-19.172 -11.06,-6.058 -17.7,-0.578 -23.49,8.5 -4.95,7.629 -11.17,14.391 -15.83,22.129 -2.68,4.52 -4.53,10.102 -4.91,15.352 -6.54,88.121 -12.8,176.258 -19.23,264.359 -0.27,3.559 -1.22,7.012 -5.72,11.059 -1.41,-5.977 -4.16,-12.039 -3.96,-17.949 1.23,-36.551 2.33,-73.122 5.01,-109.579 3.9,-53.199 9.09,-106.339 13.86,-161.05 -21.63,-2.36 -22.25,-15.641 -20.23,-31.641 0.61,-4.98 -2.63,-13.648 -6.48,-15.43 -16.72,-7.609 -15.79,-22 -15.15,-35.761 0.68,-14.508 9.82,-24.547 23.57,-27.457 12.96,-2.813 19.11,-9.282 23.94,-21.532 13,-33.218 36.2,-46.59 71.63,-42.64 20.08,2.218 39.96,6.379 60.04,9.062 28.06,3.707 53.02,-9.07 66.48,-33.312 7.87,-14.098 4.01,-20.782 -12.44,-21.09 -18.36,-0.36 -37.46,2.82 -54.93,-1.231 -34.93,-8.109 -59.54,-34.808 -34.57,-75.519 19.92,-32.52 38.95,-65.82 71.75,-88.281 11.13,-7.629 23.2,-15.887 24.02,-32.739 0.14,-3.23 10.29,-5.929 15.83,-8.929 5.09,-2.743 10.11,-5.512 15.2,-8.301 -4.5,-4.36 -8.26,-9.949 -13.53,-12.809 -12.23,-6.57 -25.16,-11.781 -37.81,-17.57 0.58,-2.379 1.11,-4.68 1.66,-7.02 6.14,-1.3 12.33,-3.781 18.44,-3.621 25.85,0.621 51.71,1.739 77.55,3.239 22.06,1.293 26.59,13.332 20.12,35.113 -7.82,26.41 -31.68,41.199 -41.95,65.32 -3.97,9.238 -10.56,17.227 -15.45,26.078 -7.68,13.852 -5.49,22.711 10.09,24.219 24.81,2.402 50.06,0.211 75.14,0.109 8.69,-0.039 17.86,-1.078 26.09,1.043 16.57,4.309 31.1,2.34 44.58,-8.191 14.58,-11.441 28.42,-24.23 44.14,-33.898 17.42,-10.711 36.58,-18.692 55.05,-27.641 13.07,-6.34 26.8,-11.481 39.41,-18.512 18.25,-10.179 35.36,-21.41 58.37,-14.539 5.6,1.68 13.71,-5.129 20.63,-8.012 10.03,-4.179 19.78,-9.019 30.01,-12.398 13.75,-4.57 27.74,-8.781 41.9,-11.668 10.95,-2.273 25.68,-8.781 31.27,5.949 5.44,14.449 -10.15,19.008 -19.09,25.938 -1.33,1.031 -2.83,2.051 -4.39,2.441 -39.61,9.371 -63.07,39.32 -86.12,68.922 -12.43,15.957 -29.87,24.09 -45.18,35.727 -34.48,26.191 -66.97,55.05 -100.2,82.863 -1.7,1.418 -3.62,2.777 -4.94,4.519 -8.62,11.489 -17.09,23.059 -24.95,33.629" /><path
             id="path38"
             style="fill:#ffffff;fill-opacity:1;fill-rule:evenodd;stroke:none"
             d="m 690.699,1148.42 c -1.89,0.31 -3.761,0.57 -5.617,0.86 -3.223,-6.11 -7.539,-11.87 -9.43,-18.38 -10.132,-34.13 16.211,-52.77 32.563,-76.23 12.941,5.65 15.832,15.22 14.23,24.57 -6.336,5.08 -13.007,7.64 -14.511,12.04 -6.579,18.78 -11.622,38.06 -17.235,57.14 z M 426.77,1282 c 8.363,-3.34 14.292,-5.1 19.613,-7.99 4.363,-2.44 7.609,-7.97 12.062,-9.07 12.938,-3.07 26.207,-5.19 39.387,-6.46 6.324,-0.6 12.871,1.68 19.32,2.58 14.684,2.01 17.746,8.5 8.477,21.02 -11.734,15.97 -24.34,31.36 -36.844,46.77 -4.242,5.24 -8.73,11.46 -17.051,5.04 -1.324,-1 -6.105,-0.27 -6.718,0.93 -6.364,12.02 -11.676,4.14 -16.868,-0.69 -15.882,-14.88 -16.117,-35.72 -21.378,-52.13 z m -12.942,140.15 c 3.492,0.3 6.914,0.59 10.387,0.9 5.906,-7.85 11.168,-16.27 17.879,-23.34 5.273,-5.55 12.89,-8.79 18.355,-14.17 9.348,-9.18 26.453,-13.09 21.969,-31.35 3.641,-0.73 6.473,-1.3 10.281,-2.1 -3.234,-4.8 -5.57,-8.22 -7.988,-11.79 17.207,-21.06 33.977,-41.67 51.344,-62.93 7.031,14.04 5.66,23.45 -1.375,34.03 -3.965,5.95 -2.555,15.86 -2.563,23.96 -0.043,6.03 2.41,12.05 2.274,17.99 -0.43,16.03 7.621,26.91 21.351,32.52 13.735,5.62 27.981,4.79 40.641,-4.77 13.019,-9.88 17.726,-24.01 20.254,-39.32 2.742,-16.91 1.25,-34.06 3.914,-51.03 2.801,-17.56 25.773,-34.53 43.711,-30.71 14.664,3.15 23.543,-0.93 32.14,-14.16 2.036,-3.16 5.821,-5.31 7.844,-8.52 3.309,-5.32 6.004,-11.03 8.664,-16.69 1.445,-3.03 1.438,-7.56 3.645,-9.2 16.203,-11.92 23.05,-28 25.047,-47.61 0.757,-7.34 5.839,-14.28 8.933,-21.38 3.434,-7.93 7.055,-15.76 10.129,-23.81 1.02,-2.71 1.774,-7.88 0.582,-8.63 -11.703,-7.13 -7.277,-19.92 -10.66,-29.73 -4.274,-12.4 -6.445,-25.56 -8.938,-38.49 -1.503,-7.73 -1.886,-15.7 -3.156,-26.64 1.942,-2.57 6.512,-7.79 10.082,-13.67 1.785,-3.069 1.758,-7.209 2.602,-10.901 -3.387,1.602 -7.481,2.371 -9.981,4.821 -12.402,11.96 -24.422,24.24 -36.394,36.66 -1.91,1.98 -3.371,4.89 -3.84,7.58 -2.863,16.82 -14.266,27.59 -27.008,40.46 0.867,-10.01 1.527,-17.57 2.254,-25.71 -2.676,-1 -5.355,-1.97 -4.93,-1.8 -1.25,-9.59 -2.238,-16.85 -2.98,-22.65 7.609,-3.39 16.566,-4.89 21.863,-10.12 14.164,-14.01 26.613,-29.799 40.059,-44.631 8.433,-9.239 18.004,-17.578 26.051,-27.207 14.355,-17.133 25.992,-35.782 25.445,-59.453 -0.449,-20.817 -10.563,-36.387 -27.317,-47.418 -14.355,-9.512 -28.894,-5.629 -42.859,2.257 -7.918,4.481 -15.684,9.672 -24.137,12.551 -8.386,2.821 -16.34,12.082 -26.882,3.883 -0.817,-0.652 -8.629,4.219 -8.801,6.809 -1,14.808 -12.852,16.39 -24.164,22.058 -2.067,-12.168 -5.625,-23.187 -5.285,-34.09 0.328,-10.718 -5.582,-13.109 -12.348,-10.949 -5.508,1.75 -12.328,7.77 -13.512,13.039 -2.797,12.801 -6.781,22.27 -19.383,29.403 -7.105,4 -11.047,5.878 -17.031,1.828 1.609,-6.969 5.82,-14.328 4.074,-19.719 -4.882,-15.063 -2.965,-28.813 1.75,-43.129 1.133,-3.402 0.137,-10.711 -1.543,-11.281 -11.078,-3.821 -22.48,-7.903 -34.019,-8.653 -8.324,-0.539 -12.297,7.211 -10.848,15.852 1.465,8.5 3.934,16.891 4.852,25.43 0.429,4.179 -0.469,11.5 -2.778,12.461 -17.183,6.949 -34.441,15.839 -52.406,18.007 -24.93,2.961 -32.637,19.731 -39.957,38.524 -0.894,2.34 0.465,6.219 1.918,8.648 6.129,9.981 13.133,19.391 18.996,29.532 6.149,10.738 11.254,22.027 17.926,35.168 -4.852,16.85 0.027,26.43 18.855,36.7 10.688,5.83 20.348,13.58 32.403,21.78 -16.352,6.72 -17.539,17.66 -16.531,30.18 0.792,9.74 1.71,19.94 -0.282,29.39 -2.472,12.09 -8.242,23.44 -11.82,35.35 -3.34,11.19 -9.133,17.89 -21.274,21 -46.046,11.77 -78.406,43.83 -110.082,76.58 -0.441,5.18 -0.902,10.37 -1.343,15.55 1.328,11.82 2.597,23.65 3.699,33.87 4.277,3.55 8.164,5.95 10.953,9.23 10.281,12.13 19.207,25.63 30.609,36.57 15.192,14.62 35.911,24.53 36.184,49.45 -8.195,12.13 -16.871,24.94 -25.504,37.73" /><path
             id="path40"
             style="fill:#ffffff;fill-opacity:1;fill-rule:evenodd;stroke:none"
             d="m 2862.87,1763.11 c -5.15,-9.22 -11.93,-17.93 -15.12,-27.77 -7.73,-23.81 -26.85,-35.47 -46.5,-46.62 -3.57,-2.04 -9.47,-1.89 -13.67,-0.61 -18.2,5.37 -29.8,-5.06 -41.79,-15.7 -6.91,-6.16 -14.36,-11.64 -22.31,-18 -0.53,0.44 1.71,-1.37 4.88,-3.97 -21.61,-15.87 -43.81,-31.26 -64.88,-47.97 -13.97,-11.04 -25.98,-24.42 -39.63,-35.84 -6.75,-5.65 -15.31,-9.13 -22.97,-13.68 -10.41,-6.17 -20.76,-12.42 -32.83,-19.65 -2.84,6.47 -6.8,12.19 -7.91,18.46 -4.03,22.7 -12.44,39.16 -39.85,37.84 -10.45,-0.5 -20.04,4.7 -30.21,9.2 -22.29,9.89 -48.13,11.97 -72.44,4.62 -11.21,-3.42 -20.92,-11.56 -31.49,-17.2 -3.05,-1.62 -6.74,-2 -12.46,-3.56 0.25,5.47 0.04,9.34 0.7,13.07 6.04,33.32 -36.01,64.06 -62.67,62.8 -16.04,-0.75 -30.96,-22.33 -29.9,-43.72 1.01,-20.32 3.88,-40.54 5.66,-60.84 1.17,-12.35 4.64,-25.47 1.74,-36.9 -2.18,-8.71 -11.68,-16.81 -19.79,-22.51 -14.28,-10.01 -20.64,-22.22 -18.88,-39.95 1.48,-15.04 -1.82,-31.42 3.26,-44.87 5.06,-13.39 15.81,-27.29 27.87,-34.66 13.82,-8.47 32.53,-8.53 44.67,6.12 5.78,6.92 6.91,17.67 10.66,28.04 10.72,-5.49 22.4,-10.27 32.91,-16.89 18.71,-11.76 38.3,-19.09 60.65,-20.08 21.91,-0.92 46.05,-22.97 50.83,-44 1.34,-6.04 3.7,-12.07 6.86,-17.36 21.39,-35.89 27.21,-76.77 35.8,-116.36 5.16,-23.86 2.28,-49.31 4.28,-73.97 1.74,-21.78 3.65,-43.75 8.42,-64.97 2.38,-10.57 11.6,-18.49 13.38,-31.29 4.64,-32.91 -14.51,-53.808 -38.85,-67.539 -9.16,-5.121 -22.36,-8.851 -16.82,-21.64 1.73,-3.942 18.15,-4.039 26.88,-1.911 23.32,5.622 46.06,13.629 69.2,20.192 9.65,2.738 8.34,8.328 6.68,15.828 -3.27,14.832 -6.57,29.84 -7.84,44.94 -0.96,11.34 -1.52,22.3 8.83,32.86 5.13,5.18 0.31,20.18 -0.09,30.71 -0.33,8.65 -0.33,17.26 -1.37,25.79 -2.38,19.68 -5.41,39.25 -7.97,58.9 -1.02,8.31 -1.49,16.7 1.35,25.48 10.25,-20.58 20.52,-41.19 30.82,-61.78 2.15,1.03 4.27,2.08 6.38,3.13 -12.01,28.28 -24.02,56.52 -36.02,84.81 1.04,0.45 2.14,0.89 3.17,1.35 5,-10.06 10.04,-20.22 15.03,-30.28 1.46,0.49 2.9,0.97 4.37,1.43 -0.1,3.17 0.93,6.97 -0.45,9.38 -23.59,39.89 -14.46,82.24 -10.32,124.46 5.4,55.66 22.97,106.29 56.72,151.31 18.38,24.36 35.56,49.63 52.72,74.87 5.23,7.67 8.61,16.66 13.29,25.91 18.34,-0.53 29.42,13.23 41.73,25.52 4.9,4.9 11.85,7.73 16.81,12.6 7.98,7.88 15.24,16.43 22.44,25.01 9.01,10.8 16.45,23.38 26.94,32.46 9.69,8.32 24.48,11.03 33.54,19.8 11.58,11.22 23.22,24.82 28.28,39.61 6.05,17.57 -9.8,27.7 -23.25,36.41 -3.14,-0.29 -6.3,-0.57 -9.47,-0.82" /><path
             id="path42"
             style="fill:#ed1c24;fill-opacity:1;fill-rule:nonzero;stroke:none"
             d="m 787.234,1428.84 c -12.937,0.05 -25.214,-3.27 -36.824,-9.96 -11.621,-6.69 -20.707,-15.73 -27.265,-27.12 -6.551,-11.39 -9.864,-24.11 -9.922,-38.15 -0.086,-20.77 7.035,-38.36 21.382,-52.73 14.34,-14.38 31.672,-21.61 51.997,-21.69 13.57,-0.06 26.148,3.18 37.722,9.71 11.574,6.53 20.621,15.5 27.137,26.89 6.519,11.39 9.809,24.07 9.867,38.03 0.059,13.87 -3.125,26.44 -9.547,37.68 -6.414,11.26 -15.488,20.28 -27.203,27.06 -11.723,6.8 -24.168,10.22 -37.344,10.28 z m -0.695,16.99 c 26.481,-0.11 48.606,-9.03 66.371,-26.78 17.77,-17.75 26.598,-39.54 26.485,-65.37 -0.11,-25.6 -9.102,-47.27 -26.977,-65.02 -17.883,-17.76 -39.625,-26.58 -65.234,-26.47 -25.93,0.11 -47.774,9.08 -65.539,26.9 -17.766,17.83 -26.594,39.34 -26.489,64.54 0.071,16.8 4.199,32.35 12.387,46.66 8.187,14.31 19.32,25.5 33.391,33.56 14.066,8.06 29.265,12.05 45.605,11.98" /><path
             id="path44"
             style="fill:#ed1c24;fill-opacity:1;fill-rule:nonzero;stroke:none"
             d="m 1118.52,1381.79 c -9.26,0.04 -17.82,-2.21 -25.67,-6.73 -7.86,-4.51 -14.12,-10.88 -18.79,-19.09 -4.66,-8.21 -7.01,-16.91 -7.05,-26.09 -0.04,-9.1 2.26,-17.82 6.89,-26.15 4.64,-8.33 10.89,-14.83 18.74,-19.49 7.85,-4.67 16.3,-7.01 25.32,-7.05 9.1,-0.04 17.74,2.22 25.91,6.77 8.17,4.55 14.46,10.75 18.89,18.56 4.43,7.82 6.66,16.63 6.7,26.45 0.07,14.96 -4.81,27.49 -14.61,37.58 -9.82,10.09 -21.93,15.17 -36.33,15.24 z m 66.76,62.35 -0.76,-179.24 -16.4,0.07 0.1,22.22 c -7.01,-8.45 -14.86,-14.79 -23.56,-19.03 -8.69,-4.24 -18.2,-6.34 -28.49,-6.3 -18.31,0.08 -33.91,6.78 -46.8,20.11 -12.91,13.33 -19.32,29.5 -19.24,48.52 0.08,18.62 6.69,34.52 19.82,47.7 13.13,13.18 28.89,19.72 47.27,19.65 10.62,-0.05 20.22,-2.35 28.8,-6.9 8.57,-4.55 16.09,-11.36 22.55,-20.42 l 0.31,73.69 16.4,-0.07" /><path
             id="path46"
             style="fill:#ed1c24;fill-opacity:1;fill-rule:nonzero;stroke:none"
             d="m 1475.5,1341.4 c -2.18,8.88 -5.39,15.99 -9.62,21.32 -4.21,5.32 -9.81,9.62 -16.78,12.9 -6.97,3.28 -14.3,4.94 -21.99,4.97 -12.7,0.05 -23.63,-3.98 -32.78,-12.1 -6.69,-5.92 -11.77,-14.81 -15.23,-26.68 z m -0.15,-34.83 13.99,-7.43 c -4.64,-9.01 -9.98,-16.28 -16.03,-21.8 -6.05,-5.52 -12.85,-9.71 -20.4,-12.57 -7.55,-2.86 -16.08,-4.27 -25.6,-4.23 -21.1,0.08 -37.56,7.07 -49.4,20.95 -11.84,13.88 -17.72,29.53 -17.65,46.97 0.07,16.4 5.17,31 15.3,43.79 12.84,16.27 29.96,24.36 51.38,24.27 22.05,-0.09 39.61,-8.53 52.71,-25.3 9.31,-11.86 14.01,-26.61 14.09,-44.28 l -116.37,0.5 c 0.25,-15.03 5.01,-27.36 14.25,-37.01 9.24,-9.64 20.68,-14.49 34.33,-14.55 6.58,-0.03 13,1.09 19.24,3.35 6.23,2.26 11.53,5.28 15.92,9.05 4.38,3.77 9.12,9.87 14.24,18.29" /><path
             id="path48"
             style="fill:#ed1c24;fill-opacity:1;fill-rule:nonzero;stroke:none"
             d="m 1734.08,1377.74 -10.74,-11 c -8.87,8.66 -17.55,13.02 -26.04,13.06 -5.41,0.02 -10.03,-1.74 -13.91,-5.29 -3.87,-3.55 -5.81,-7.7 -5.83,-12.46 -0.02,-4.2 1.55,-8.2 4.72,-12.02 3.15,-3.9 9.81,-8.48 19.94,-13.76 12.36,-6.47 20.75,-12.68 25.17,-18.64 4.35,-6.05 6.51,-12.83 6.47,-20.36 -0.04,-10.62 -3.82,-19.59 -11.3,-26.93 -7.49,-7.34 -16.84,-10.99 -28.02,-10.94 -7.47,0.03 -14.58,1.69 -21.35,4.96 -6.77,3.29 -12.37,7.79 -16.79,13.51 l 10.51,11.84 c 8.46,-9.62 17.46,-14.46 26.99,-14.5 6.66,-0.03 12.35,2.09 17.06,6.35 4.69,4.26 7.07,9.28 7.09,15.07 0.02,4.75 -1.51,8.99 -4.59,12.73 -3.09,3.66 -10.05,8.29 -20.9,13.88 -11.65,6.07 -19.57,12.05 -23.75,17.93 -4.19,5.88 -6.26,12.58 -6.23,20.11 0.04,9.83 3.44,17.98 10.16,24.45 6.74,6.47 15.23,9.68 25.46,9.64 11.91,-0.05 23.87,-5.93 35.88,-17.63" /><path
             id="path50"
             style="fill:#ed1c24;fill-opacity:1;fill-rule:nonzero;stroke:none"
             d="m 1972.67,1376.73 -10.75,-11.01 c -8.86,8.67 -17.54,13.03 -26.04,13.07 -5.4,0.02 -10.04,-1.74 -13.91,-5.29 -3.86,-3.55 -5.81,-7.7 -5.83,-12.46 -0.02,-4.2 1.55,-8.21 4.71,-12.02 3.16,-3.9 9.81,-8.48 19.95,-13.76 12.36,-6.47 20.75,-12.69 25.18,-18.65 4.34,-6.04 6.5,-12.83 6.46,-20.36 -0.04,-10.62 -3.82,-19.59 -11.3,-26.93 -7.49,-7.33 -16.83,-10.98 -28.02,-10.93 -7.47,0.03 -14.58,1.68 -21.35,4.96 -6.78,3.28 -12.38,7.78 -16.79,13.5 l 10.51,11.85 c 8.46,-9.63 17.45,-14.46 26.98,-14.5 6.67,-0.03 12.36,2.08 17.07,6.35 4.7,4.25 7.07,9.27 7.09,15.06 0.02,4.76 -1.5,9 -4.59,12.74 -3.08,3.66 -10.05,8.29 -20.91,13.88 -11.65,6.07 -19.56,12.05 -23.75,17.93 -4.18,5.88 -6.26,12.58 -6.22,20.11 0.04,9.83 3.43,17.98 10.16,24.45 6.74,6.46 15.22,9.68 25.47,9.63 11.9,-0.05 23.86,-5.92 35.88,-17.62" /><path
             id="path52"
             style="fill:#ed1c24;fill-opacity:1;fill-rule:nonzero;stroke:none"
             d="m 2208.58,1377.15 c -9.25,0.04 -17.82,-2.2 -25.67,-6.72 -7.86,-4.52 -14.12,-10.88 -18.78,-19.09 -4.67,-8.22 -7.02,-16.91 -7.06,-26.09 -0.04,-9.1 2.27,-17.82 6.89,-26.15 4.63,-8.33 10.88,-14.83 18.75,-19.5 7.85,-4.65 16.28,-7.01 25.31,-7.05 9.1,-0.04 17.74,2.22 25.92,6.78 8.16,4.56 14.46,10.74 18.88,18.56 4.43,7.82 6.66,16.64 6.7,26.45 0.07,14.96 -4.8,27.49 -14.62,37.58 -9.8,10.09 -21.91,15.17 -36.32,15.23 z m 66.56,12.43 -0.55,-129.32 -16.41,0.08 0.1,22.22 c -7.01,-8.45 -14.86,-14.8 -23.55,-19.04 -8.7,-4.23 -18.2,-6.34 -28.5,-6.29 -18.31,0.07 -33.91,6.77 -46.81,20.11 -12.9,13.32 -19.3,29.5 -19.22,48.52 0.07,18.62 6.68,34.52 19.81,47.69 13.13,13.18 28.89,19.73 47.28,19.65 10.61,-0.04 20.21,-2.34 28.79,-6.9 8.57,-4.55 16.09,-11.35 22.55,-20.41 l 0.1,23.77 16.41,-0.08" /><path
             id="path54"
             style="fill:#231f20;fill-opacity:1;fill-rule:evenodd;stroke:none"
             d="m 2058.22,2217.4 c -1.05,1.78 -2.73,3.12 -5.38,3.87 -6.17,1.64 -12.99,-0.45 -18.43,3.26 -4.47,3.11 -9.02,6.26 -13.79,9.25 -3.61,2.37 -7.12,5.17 -11.62,5.91 -5.72,0.94 -11.79,-0.93 -17.42,-1.66 -16.85,-2.19 -29.12,5.84 -35.04,20.24 -6.64,16.21 -2.95,36.84 17.86,41.64 20.07,4.69 44.04,-5.09 63.11,-9.95 6.47,-1.68 13.35,-2.83 19.58,-5.24 4.98,-2.02 10.86,-3.45 14.82,-7.22 4.73,-4.52 1.13,-15.96 -0.45,-21.27 -1.75,-6.26 -4.8,-12.28 -7.94,-18.03 -1.78,-3.35 -2.86,-7.38 -4.79,-10.58 -1.64,-2.79 -1.91,-6.44 -0.51,-10.22 z m 238.38,-132.93 c -2.14,17.22 -8.96,39.64 -22.63,48.57 -15.72,10.26 -21.33,19.01 -19.63,34.15 0.87,8.26 2.03,17.81 -1.35,25.75 -2.5,5.82 -9.24,8.01 -11.67,13.15 0.69,-0.05 5.58,-0.55 9.81,-0.75 l 0.07,16.52 c -7.36,0.14 -14.81,-0.07 -22.2,-0.03 -4.35,0 -8.96,-0.94 -10.86,3.42 -2.53,5.81 10.49,375.3 10.09,442.47 -0.07,9.37 -5.53,18.69 -8.48,28.07 -7.48,-6.96 -8.8,-12.64 -8.99,-18.36 -1.23,-56.57 -12.35,-452.38 -14.88,-455.94 -2.7,-3.7 -9.02,-3.9 -12.81,-4.13 -3.23,-0.14 -6.39,-0.22 -9.53,-0.3 l -0.08,-16.7 c 5.68,0.44 11.34,1.29 16.27,2.25 -5.86,-12.81 -18.31,-24.28 -26.44,-35.82 -9.7,-13.62 -21.18,-20.71 -39.38,-12.36 -15.59,7.2 -31.33,14.01 -46.94,21.02 -5.45,2.42 -11.76,3.33 -14.29,8.7 -3.62,7.65 -2.24,15.55 -2.59,23.58 -0.14,2.64 -0.23,5.28 -0.98,7.52 0.09,-0.13 0.07,-0.3 0.15,-0.46 2.81,-4.67 7.79,13.35 10.36,18.08 14.56,27.23 23.52,54.36 25.77,85.02 0.88,11.53 1.6,22.41 -3.48,33.31 -5.21,10.98 -13.71,20.12 -25.05,26.23 -9.52,5.14 -20.36,7.69 -30.42,11.85 -10.33,4.18 -22.18,7.77 -33.65,6.44 -16.17,-1.85 -34.45,-9.4 -47.2,-18.37 -13.11,-9.18 -23.14,-21.8 -26.76,-36.51 -7.05,-27.97 -25.16,-47.01 -39.12,-69.43 -5.45,-8.61 -17.62,-17.25 -28.28,-19.16 -54.81,-10.19 -100.39,-34.6 -133.78,-74.01 -26.15,-30.91 -51.25,-62.47 -75.83,-94.4 -21.92,-28.35 -41.16,-59.71 -68.97,-83.42 -7.13,-6.12 -6.13,-4.84 -8.48,-14.05 -3.65,-14.31 -16.55,-27.2 -34.49,-26.04 -1.83,-15.8 0.78,-23.33 -13.69,-34.46 -8.61,-6.63 -19,-11.21 -27.3,-18.21 -5.61,-4.57 -9.55,-11.92 -15.61,-15.84 -18.29,-11.92 -54.96,-11.25 -76.8,-14.7 -28.88,-4.57 -57.85,-9.28 -86.71,-13.87 -8.01,-1.26 -84.54,-10.43 -84.78,-13.58 -0.22,-2.32 -0.46,-4.63 -0.67,-6.94 12.34,-1.44 25.07,-5.5 36.91,-3.94 71.05,9.56 141.9,20.39 207.42,29.94 -7.95,-1.15 -28.2,-37.97 -33.3,-44.8 -8.91,-11.88 -20.47,-16.51 -30.6,-28.05 -6.97,-7.83 -8.85,-11.45 -17.42,-15.88 -5.15,-2.73 -5.73,-3.23 -11.73,-4.87 -4.77,-1.33 -9.49,-1.43 -14.27,-3.58 -9.1,-4.14 -11.68,-9.47 -17.99,-16 -10.79,-11.03 -18.45,-25.7 -30.82,-35.34 -5.86,-4.62 -12.95,-7.08 -19.42,-10.75 -10.54,-5.98 -15.64,-13.5 -22.14,-21.35 -12.11,-14.75 -25.41,-17.06 -44.79,-18.11 0.19,-2.98 -1.16,-6.73 -0.88,-9.7 -11.9,-1.27 -6.05,-9.27 -10.06,-15.05 -3.96,-5.83 -12.24,-7 -17.87,-11.2 -10.53,-8.13 -11.52,-17.95 -13.47,-31.23 0.08,0.6 -17.21,-10.12 -18.6,-11.23 -5.48,-4.4 -10.35,-8.72 -15.09,-13.78 -11.32,-12.11 -21.4,-24.92 -33.73,-36.36 -22.39,-20.72 -48.31,-36.91 -78.21,-47.25 -16.8,-5.72 -61.131,-20.15 -32.65,-38.82 9.24,-6.04 14.91,-5.05 16.1,-16.66 0.93,-8.75 -4.7,-17.76 8.22,-20.27 9.24,-1.79 20.58,6.71 29.25,8.82 10.62,2.58 19.54,1.75 27.36,9.73 7.04,7.22 8.69,15.17 18.62,20.21 5.69,2.88 20.84,10.22 26.38,10.53 13.13,0.64 20.3,-8.97 34.48,-0.92 10.03,5.65 18.22,13.9 26.6,21.15 7.34,6.39 14.33,13.44 22.23,19.38 15.64,11.74 27.85,-1.63 44.52,-0.57 10.61,0.68 9.71,11.68 19.34,14.58 10.59,3.18 18.34,-5.86 28.12,0.85 5.59,3.87 0.46,6.77 8.19,8.64 4.2,1.05 10.18,-3.03 15.14,-2.31 11.52,1.74 19.8,11.5 28.28,17.83 8.79,6.55 18.56,10.29 28.49,15.1 29.03,13.92 58.23,27.87 85.59,44.45 25.31,15.24 46.91,35.56 70.12,53.6 21.81,16.97 46.32,21.25 74.68,16.61 16.63,-2.67 34.34,0.26 51.55,0.75 30.97,0.99 62.01,2.99 93.03,3.55 12.86,0.24 27.71,-1.79 40,1.55 10.58,2.78 22.12,6.89 32.67,10.25 -2.97,-4.34 -8.31,-8.12 -8.89,-13.05 15.16,0.59 18.38,-5.72 10.71,-14.68 -2.09,-2.45 -5.47,-3.7 -6.41,-6.78 -1.23,-3.73 3.53,-7.34 2.14,-11.04 -3.17,-8.24 -13.08,-5.28 -17.55,-10.39 -5.02,-5.79 -7.28,-20.47 -11.1,-27.73 -4.23,-8.09 -8.88,-15.92 -12.5,-24.2 -11.67,-26.59 -33.14,-62.48 -59.93,-78.53 -16.35,-9.85 -21.96,-31.29 -17.33,-48.73 5.05,-18.97 47.61,-17.8 64.56,-17.99 40.1,-0.53 80.34,-0.22 120.46,0.56 6.31,0.14 54.12,3.91 54.86,8.03 3.36,19.39 -18.34,13.23 -28.55,13.67 -18.34,0.81 -43.85,14.85 -60.22,21.97 -8.86,3.82 -17.61,12.07 -23.06,19.2 10.66,5.59 16.11,14.72 24.52,22.62 9.66,9.04 17.72,18.57 27.68,27.34 9.16,8.17 25.54,23.5 29.9,34.49 3.41,-1.01 8.25,-2.47 12.55,-1.42 -0.37,2.29 1.27,5.74 0.8,8.03 15.23,0.23 19.22,11.11 26.85,20.19 6.49,7.86 16.4,12.6 22.93,20.47 7.74,9.38 14.94,19.79 21.98,29.71 15.44,22.03 29.03,44.98 42.91,67.81 40.5,66.45 -5.51,107.3 -67.15,117.45 -24.94,4.07 -51.45,1.5 -76.4,-0.96 -8.12,-0.81 -16.42,-4.31 -24.42,-4.65 -9.16,-0.41 -17.7,4.26 -26.33,6.39 -9.36,2.29 -21.29,3.71 -30.95,4.41 1.5,4.78 -0.11,13.08 2.1,17.69 3.36,7.05 14.11,9.51 19.71,14.14 -3.16,4.73 -10.74,7.31 -9.18,13.74 11.55,2.5 21.38,9.46 32.42,13.11 11.03,3.64 19.6,1.43 29.52,5.93 26.14,11.88 47.56,20.86 78.16,18.46 36.35,-2.85 72.63,-8.1 108.97,-10.13 57.35,-3.33 98.15,19.54 117.49,68.15 8.59,21.54 18.22,36.18 44.81,42.05 24.49,5.43 38.75,24.63 35.97,46.91" /><path
             id="path56"
             style="fill:#231f20;fill-opacity:1;fill-rule:evenodd;stroke:none"
             d="m 1966.39,2285.29 c 3.63,0.65 16.15,-7.83 20.99,-11.52 -5.92,-5.21 -20.19,6.84 -27.01,9.69" /><path
             id="path58"
             style="fill:#231f20;fill-opacity:1;fill-rule:evenodd;stroke:none"
             d="m 2026.68,2268.57 c 3.77,3.05 20.72,0.04 25.08,-2.8 -9.5,-5.14 -14.48,-3.39 -25.09,-1.27" /><path
             id="path60"
             style="fill:#ed1c24;fill-opacity:1;fill-rule:nonzero;stroke:none"
             d="m 961.797,2280.82 c 0.625,194.93 0.652,230.84 -1.531,271.88 -2.215,43.66 -11.614,64.13 -50.325,73.21 -9.414,2.55 -29.418,3.88 -45.886,3.88 -12.907,0.06 -19.867,2.58 -19.922,11.64 0.023,8.91 8.234,11.45 25.883,11.46 62.289,-0.1 136.374,-4.06 166.974,-4.1 28.17,-0.02 102.23,3.71 148.09,3.68 16.4,-0.07 24.67,-2.64 24.61,-11.63 -0.01,-8.94 -7.03,-11.5 -21.15,-11.5 -12.93,0.03 -19.99,-1.3 -34.12,-3.8 -31.76,-6.41 -41.23,-28.19 -43.7,-73 -2.46,-41.06 -2.58,-76.99 -3.12,-271.95 l -0.63,-237.2 c -0.19,-55.15 3.11,-116.72 2.94,-180.89 -0.16,-73.08 -5.12,-155.15 -28.87,-226.91 -24.9,-78.22 -87.403,-166.6 -200.466,-242.15 -15.363,-10.21 -34.172,-20.43 -58.953,-33.24 -8.16,-5.1 -17.633,-7.69 -23.492,-7.68 -4.684,0.02 -9.356,3.88 -9.336,10.33 0.023,6.37 5.859,11.51 25.875,23.03 15.394,8.95 33.031,23.04 56.605,48.66 89.606,98.61 88.809,226.85 89.481,478.24 l 1.043,368.04 v 0" /><path
             id="path62"
             style="fill:#ed1c24;fill-opacity:1;fill-rule:nonzero;stroke:none"
             d="m 1293.61,1511.74 c -22.15,10.43 -26.28,17.99 -26.42,51.14 -0.22,83.06 5.03,173.61 6.33,197.75 1.29,22.62 5.43,39.28 16.46,39.33 12.43,0.03 13.89,-13.49 13.92,-25.6 0.07,-19.63 5.71,-51.27 12.72,-76.86 30.76,-111.6 112.42,-151.95 198.26,-151.57 124.5,0.55 185.08,92.86 184.78,172.85 -0.22,73.99 -21.17,143.25 -136.3,240.89 l -63.79,54.05 c -152.54,129.09 -205.48,234.53 -205.84,356.76 -0.49,165.97 126.39,285.76 318.69,286.66 89.91,0.38 147.99,-14.45 184.06,-24.82 12.46,-2.98 19.4,-7.47 19.38,-18.04 0.12,-19.64 -5.35,-63.36 -5,-181.14 0.11,-33.2 -3.98,-45.26 -15.02,-45.36 -9.75,-0.01 -13.84,9.06 -13.93,27.13 -0.06,13.61 -7.12,60.36 -36.27,99.47 -20.85,28.53 -61.13,73.67 -151.01,73.24 -102.36,-0.45 -164.4,-65.6 -164.14,-156.19 0.23,-69.43 32.22,-122.05 147.34,-216.67 l 38.78,-31.44 c 167.88,-136.66 227.61,-240.56 228.02,-383.88 0.31,-87.56 -29.8,-191.8 -129.18,-263.21 -68.98,-48.55 -146.41,-62.53 -219.74,-62.87 -80.22,-0.31 -142.53,9.93 -202.1,38.38 v 0" /></g></g></g></g></svg>